<svg width="1024" height="1024" viewBox="0 0 1024 1024" fill="none" xmlns="http://www.w3.org/2000/svg" role="img" aria-label="LogSage monochrome mark revised">
  <rect width="1024" height="1024" fill="black"/>
  <g stroke="white" stroke-opacity="0.12" stroke-linecap="round">
    <path d="M210 650 C310 620, 410 580, 555 535" stroke-width="1.6"/>
    <path d="M245 590 C350 575, 450 555, 578 528" stroke-width="1.2"/>
    <path d="M270 525 C370 525, 470 525, 594 524" stroke-width="1.1"/>
    <path d="M285 450 C388 468, 482 490, 595 510" stroke-width="1.0"/>
    <path d="M320 388 C420 430, 510 470, 600 504" stroke-width="1.0"/>
  </g>
  <g fill="white">
    <circle cx="132" cy="606" r="4.0"/>
    <circle cx="186" cy="452" r="5.3"/>
    <circle cx="201" cy="703" r="5.5"/>
    <circle cx="247" cy="304" r="6.2"/>
    <circle cx="260" cy="523" r="5.9"/>
    <circle cx="284" cy="805" r="5.2"/>
    <circle cx="304" cy="259" r="4.3"/>
    <circle cx="314" cy="660" r="5.1"/>
    <circle cx="332" cy="387" r="4.7"/>
    <circle cx="355" cy="892" r="4.2"/>
    <circle cx="370" cy="228" r="3.8"/>
    <circle cx="392" cy="583" r="4.2"/>
    <circle cx="413" cy="433" r="4.0"/>
    <circle cx="426" cy="750" r="4.0"/>
    <circle cx="451" cy="290" r="4.3"/>
    <circle cx="470" cy="640" r="4.0"/>

    <circle cx="286" cy="610" r="6.0"/>
    <circle cx="301" cy="566" r="5.5"/>
    <circle cx="320" cy="520" r="5.1"/>
    <circle cx="336" cy="476" r="4.7"/>
    <circle cx="356" cy="435" r="4.4"/>
    <circle cx="371" cy="643" r="5.6"/>
    <circle cx="388" cy="592" r="5.0"/>
    <circle cx="403" cy="546" r="4.6"/>
    <circle cx="420" cy="503" r="4.2"/>
    <circle cx="438" cy="462" r="3.9"/>
    <circle cx="452" cy="688" r="4.8"/>
    <circle cx="470" cy="634" r="4.4"/>
    <circle cx="486" cy="588" r="4.0"/>
    <circle cx="503" cy="545" r="3.8"/>
    <circle cx="520" cy="505" r="3.6"/>

    <circle cx="530" cy="521" r="2.6"/>
    <circle cx="544" cy="486" r="2.5"/>
    <circle cx="567" cy="460" r="2.5"/>
    <circle cx="599" cy="444" r="2.5"/>
    <circle cx="636" cy="446" r="2.5"/>
    <circle cx="667" cy="462" r="2.5"/>
    <circle cx="689" cy="490" r="2.5"/>
    <circle cx="698" cy="526" r="2.5"/>
    <circle cx="689" cy="560" r="2.5"/>
    <circle cx="665" cy="588" r="2.5"/>
    <circle cx="632" cy="604" r="2.5"/>
    <circle cx="597" cy="606" r="2.5"/>
    <circle cx="565" cy="590" r="2.5"/>
    <circle cx="542" cy="562" r="2.5"/>
  </g>
  <circle cx="610" cy="520" r="16" fill="white"/>
</svg>