<svg width="256" height="256" viewBox="0 0 256 256" fill="none" xmlns="http://www.w3.org/2000/svg" role="img" aria-label="LogSage small mark revised">
  <defs>
    <radialGradient id="bg" cx="0" cy="0" r="1" gradientUnits="userSpaceOnUse" gradientTransform="translate(150 130) rotate(180) scale(150 118)">
      <stop offset="0%" stop-color="#120F3C"/>
      <stop offset="55%" stop-color="#09061A"/>
      <stop offset="100%" stop-color="#040210"/>
    </radialGradient>
    <radialGradient id="core" cx="0" cy="0" r="1" gradientUnits="userSpaceOnUse" gradientTransform="translate(150 130) rotate(90) scale(22)">
      <stop offset="0%" stop-color="#FFFFFF"/>
      <stop offset="24%" stop-color="#D8DAFF"/>
      <stop offset="54%" stop-color="#8E82FF"/>
      <stop offset="100%" stop-color="#8E82FF" stop-opacity="0"/>
    </radialGradient>
    <linearGradient id="dots" x1="36" y1="130" x2="220" y2="130" gradientUnits="userSpaceOnUse">
      <stop offset="0%" stop-color="#726CFF"/>
      <stop offset="55%" stop-color="#A9AEFF"/>
      <stop offset="100%" stop-color="#ECECFF"/>
    </linearGradient>
    <filter id="glow" x="-100%" y="-100%" width="300%" height="300%">
      <feGaussianBlur stdDeviation="1.1"/>
    </filter>
  </defs>

  <rect width="256" height="256" rx="28" fill="url(#bg)"/>
  <ellipse cx="150" cy="130" rx="44" ry="34" fill="url(#core)" opacity="0.5"/>

  <g stroke="#BEC1FF" stroke-opacity="0.12" stroke-linecap="round">
    <path d="M52 160 C74 154, 98 146, 126 138" stroke-width="0.7"/>
    <path d="M64 144 C88 141, 110 138, 134 136" stroke-width="0.6"/>
    <path d="M76 126 C98 126, 118 127, 138 128" stroke-width="0.55"/>
    <path d="M84 108 C104 116, 123 123, 141 128" stroke-width="0.5"/>
  </g>

  <g fill="url(#dots)">
    <circle cx="30" cy="152" r="1.8"/>
    <circle cx="44" cy="114" r="2.3"/>
    <circle cx="54" cy="176" r="2.3"/>
    <circle cx="66" cy="78" r="2.5"/>
    <circle cx="74" cy="130" r="2.3"/>
    <circle cx="88" cy="204" r="2.0"/>
    <circle cx="100" cy="62" r="1.7"/>
    <circle cx="104" cy="160" r="2.0"/>
    <circle cx="114" cy="106" r="1.8"/>
    <circle cx="126" cy="54" r="1.5"/>
    <circle cx="138" cy="182" r="1.5"/>
    <circle cx="196" cy="90" r="1.4"/>
    <circle cx="210" cy="128" r="1.3"/>
    <circle cx="198" cy="162" r="1.3"/>

    <circle cx="76" cy="154" r="2.6"/>
    <circle cx="86" cy="142" r="2.4"/>
    <circle cx="96" cy="130" r="2.1"/>
    <circle cx="106" cy="118" r="2.0"/>
    <circle cx="116" cy="166" r="2.1"/>
    <circle cx="126" cy="150" r="1.9"/>
    <circle cx="136" cy="138" r="1.8"/>
    <circle cx="144" cy="126" r="1.7"/>
    <circle cx="148" cy="174" r="1.7"/>
    <circle cx="156" cy="108" r="1.5"/>
    <circle cx="168" cy="98" r="1.4"/>
    <circle cx="176" cy="170" r="1.4"/>

    <circle cx="128" cy="130" r="1.3"/>
    <circle cx="138" cy="106" r="1.2"/>
    <circle cx="154" cy="94" r="1.2"/>
    <circle cx="172" cy="96" r="1.2"/>
    <circle cx="186" cy="108" r="1.2"/>
    <circle cx="194" cy="126" r="1.2"/>
    <circle cx="190" cy="144" r="1.2"/>
    <circle cx="176" cy="156" r="1.2"/>
    <circle cx="158" cy="162" r="1.2"/>
    <circle cx="142" cy="158" r="1.2"/>
  </g>

  <circle cx="150" cy="130" r="5.2" fill="#FFFFFF"/>
  <circle cx="150" cy="130" r="10.5" fill="#AAA5FF" opacity="0.32" filter="url(#glow)"/>
</svg>